<svg width="1200" height="1500" viewBox="0 0 1200 1500" fill="none" xmlns="http://www.w3.org/2000/svg">
  <defs>
    <filter id="paperNoise" x="-20%" y="-20%" width="140%" height="140%">
      <feTurbulence type="fractalNoise" baseFrequency="0.015 0.024" numOctaves="5" seed="38" stitchTiles="stitch"/>
      <feColorMatrix type="saturate" values="0"/>
      <feComponentTransfer>
        <feFuncA type="table" tableValues="0 0.24"/>
      </feComponentTransfer>
    </filter>
    <filter id="softBlur" x="-20%" y="-20%" width="140%" height="140%">
      <feGaussianBlur stdDeviation="16"/>
    </filter>
    <linearGradient id="paper" x1="120" y1="0" x2="1080" y2="1500" gradientUnits="userSpaceOnUse">
      <stop stop-color="#F6EFE2"/>
      <stop offset="0.46" stop-color="#EFE2CF"/>
      <stop offset="1" stop-color="#E2D0B5"/>
    </linearGradient>
    <linearGradient id="darkField" x1="182" y1="126" x2="1018" y2="1256" gradientUnits="userSpaceOnUse">
      <stop stop-color="#27231D"/>
      <stop offset="0.48" stop-color="#151411"/>
      <stop offset="1" stop-color="#433B30"/>
    </linearGradient>
    <linearGradient id="oldScreen" x1="246" y1="886" x2="894" y2="344" gradientUnits="userSpaceOnUse">
      <stop stop-color="#5D664D"/>
      <stop offset="0.42" stop-color="#D1B06A"/>
      <stop offset="0.76" stop-color="#ECE0C8"/>
      <stop offset="1" stop-color="#6F4D40"/>
    </linearGradient>
    <linearGradient id="burn" x1="290" y1="1120" x2="968" y2="244" gradientUnits="userSpaceOnUse">
      <stop stop-color="#7B2D26"/>
      <stop offset="0.5" stop-color="#B14B3B"/>
      <stop offset="1" stop-color="#D4A05D"/>
    </linearGradient>
    <clipPath id="fieldClip">
      <path d="M196 162H1008V1332H196V162Z"/>
    </clipPath>
  </defs>

  <rect width="1200" height="1500" fill="url(#paper)"/>
  <rect width="1200" height="1500" filter="url(#paperNoise)" opacity="0.55"/>

  <g opacity="0.5">
    <path d="M104 106H1052" stroke="#B9A98F" stroke-width="1"/>
    <path d="M104 1394H1052" stroke="#B9A98F" stroke-width="1"/>
    <path d="M104 106V1394" stroke="#B9A98F" stroke-width="1"/>
    <path d="M1052 106V1394" stroke="#B9A98F" stroke-width="1"/>
  </g>

  <g clip-path="url(#fieldClip)">
    <path d="M196 162H1008V1332H196V162Z" fill="url(#darkField)"/>
    <rect x="196" y="162" width="812" height="1170" filter="url(#paperNoise)" opacity="0.22"/>

    <path d="M126 1012C280 930 424 956 562 842C712 718 720 526 1054 488" stroke="#E9D9BE" stroke-opacity="0.12" stroke-width="72" filter="url(#softBlur)"/>
    <path d="M218 1002C364 932 450 972 588 846C720 726 762 586 990 536" stroke="#E7D7BB" stroke-opacity="0.18" stroke-width="2"/>
    <path d="M246 1054C388 984 470 1036 632 894C780 762 804 638 1020 588" stroke="#E7D7BB" stroke-opacity="0.12" stroke-width="2"/>

    <rect x="344" y="330" width="496" height="618" rx="2" transform="rotate(-7 344 330)" fill="url(#oldScreen)" opacity="0.84"/>
    <rect x="344" y="330" width="496" height="618" rx="2" transform="rotate(-7 344 330)" filter="url(#paperNoise)" opacity="0.28"/>

    <path d="M278 1234C412 940 566 692 680 500C744 392 816 314 930 232" stroke="url(#burn)" stroke-width="28" stroke-linecap="square"/>
    <path d="M260 1248C394 956 548 708 662 516C726 408 800 326 914 244" stroke="#EFE3CC" stroke-opacity="0.72" stroke-width="3"/>

    <path d="M150 690C276 688 352 602 446 548C558 482 672 480 762 420C828 376 868 316 950 306" stroke="#EFE3CC" stroke-opacity="0.2" stroke-width="2"/>
    <path d="M162 756C286 760 380 666 476 604C586 532 690 548 796 480C868 434 904 388 1040 376" stroke="#EFE3CC" stroke-opacity="0.15" stroke-width="2"/>

    <g opacity="0.3">
      <path d="M232 304H944" stroke="#EFE3CC" stroke-width="1"/>
      <path d="M232 402H944" stroke="#EFE3CC" stroke-width="1"/>
      <path d="M232 500H944" stroke="#EFE3CC" stroke-width="1"/>
      <path d="M232 598H944" stroke="#EFE3CC" stroke-width="1"/>
      <path d="M232 696H944" stroke="#EFE3CC" stroke-width="1"/>
      <path d="M232 794H944" stroke="#EFE3CC" stroke-width="1"/>
      <path d="M232 892H944" stroke="#EFE3CC" stroke-width="1"/>
      <path d="M232 990H944" stroke="#EFE3CC" stroke-width="1"/>
      <path d="M280 238V1240" stroke="#EFE3CC" stroke-width="1"/>
      <path d="M436 238V1240" stroke="#EFE3CC" stroke-width="1"/>
      <path d="M592 238V1240" stroke="#EFE3CC" stroke-width="1"/>
      <path d="M748 238V1240" stroke="#EFE3CC" stroke-width="1"/>
      <path d="M904 238V1240" stroke="#EFE3CC" stroke-width="1"/>
    </g>

    <rect x="214" y="1084" width="338" height="168" fill="#F5EAD8" opacity="0.96"/>
    <rect x="214" y="1084" width="338" height="168" filter="url(#paperNoise)" opacity="0.28"/>
    <path d="M246 1130H498" stroke="#A8916A" stroke-width="2"/>
    <path d="M246 1176H452" stroke="#A8916A" stroke-width="2"/>
    <path d="M246 1218H510" stroke="#A8916A" stroke-width="2"/>

    <rect x="716" y="1042" width="196" height="248" transform="rotate(5 716 1042)" fill="#EFE0C4" opacity="0.94"/>
    <rect x="716" y="1042" width="196" height="248" transform="rotate(5 716 1042)" filter="url(#paperNoise)" opacity="0.3"/>
    <path d="M746 1100L882 1112" stroke="#9D7B57" stroke-width="2"/>
    <path d="M742 1144L858 1154" stroke="#9D7B57" stroke-width="2"/>
    <path d="M738 1188L882 1200" stroke="#9D7B57" stroke-width="2"/>

    <path d="M196 162H1008V1332H196V162Z" stroke="#E9D9BE" stroke-opacity="0.24" stroke-width="1"/>
  </g>

  <g opacity="0.7">
    <rect x="126" y="1224" width="262" height="112" fill="#2A2520"/>
    <rect x="126" y="1224" width="262" height="112" filter="url(#paperNoise)" opacity="0.22"/>
    <path d="M150 1270H336" stroke="#E9D9BE" stroke-opacity="0.48" stroke-width="2"/>
    <path d="M150 1304H292" stroke="#E9D9BE" stroke-opacity="0.3" stroke-width="2"/>
  </g>

  <g opacity="0.78">
    <path d="M150 184H306" stroke="#8F332B" stroke-width="6"/>
    <path d="M150 212H238" stroke="#8F332B" stroke-width="2"/>
    <path d="M150 1334H274" stroke="#8F332B" stroke-width="2"/>
  </g>

  <text x="150" y="1420" fill="#5B5044" font-family="Georgia, 'Times New Roman', serif" font-size="22" letter-spacing="4">HHO / FIELD IMAGE / 2026</text>
  <text x="846" y="1420" fill="#9C3E32" font-family="Georgia, 'Times New Roman', serif" font-size="22" letter-spacing="4">UNFINISHED</text>
</svg>
